HIERARCHY
ROOT RootJoint
{
    OFFSET   0.000000   0.000000   0.000000
    CHANNELS 6 Xposition Yposition Zposition Xrotation Yrotation Zrotation
    JOINT pelvis_lowerback
    {
        OFFSET   0.000000   0.093605   0.000000
        CHANNELS 3 Xrotation Yrotation Zrotation
        JOINT lowerback_torso
        {
            OFFSET   0.000000   0.100000   0.000000
            CHANNELS 3 Xrotation Yrotation Zrotation
            JOINT torso_head
            {
                OFFSET   0.000000   0.282350   0.000000
                CHANNELS 3 Xrotation Yrotation Zrotation
                End Site
                {
                    OFFSET   0.000000   0.192650   0.000000
                }
            }
            JOINT rTorso_Clavicle
            {
                OFFSET  -0.001000   0.157500   0.000000
                CHANNELS 3 Xrotation Yrotation Zrotation
                JOINT rShoulder
                {
                    OFFSET  -0.117647   0.000000   0.000000
                    CHANNELS 3 Xrotation Yrotation Zrotation
                    JOINT rElbow
                    {
                        OFFSET  -0.245000   0.000000   0.000000
                        CHANNELS 3 Xrotation Yrotation Zrotation
                        JOINT rWrist
                        {
                            OFFSET  -0.240000   0.000000   0.000000
                            CHANNELS 3 Xrotation Yrotation Zrotation
                            End Site
                            {
                                OFFSET  -0.116353  -0.002500   0.000000
                            }
                        }
                    }
                }
            }
            JOINT lTorso_Clavicle
            {
                OFFSET   0.001000   0.157500   0.000000
                CHANNELS 3 Xrotation Yrotation Zrotation
                JOINT lShoulder
                {
                    OFFSET   0.117647   0.000000   0.000000
                    CHANNELS 3 Xrotation Yrotation Zrotation
                    JOINT lElbow
                    {
                        OFFSET   0.245000   0.000000   0.000000
                        CHANNELS 3 Xrotation Yrotation Zrotation
                        JOINT lWrist
                        {
                            OFFSET   0.240000   0.000000   0.000000
                            CHANNELS 3 Xrotation Yrotation Zrotation
                            End Site
                            {
                                OFFSET   0.116353  -0.002500   0.000000
                            }
                        }
                    }
                }
            }
        }
    }
    JOINT rHip
    {
        OFFSET  -0.100000  -0.051395   0.000000
        CHANNELS 3 Xrotation Yrotation Zrotation
        JOINT rKnee
        {
            OFFSET   0.000000  -0.410000   0.000000
            CHANNELS 3 Xrotation Yrotation Zrotation
            JOINT rAnkle
            {
                OFFSET   0.000000  -0.390000   0.000000
                CHANNELS 3 Xrotation Yrotation Zrotation
                JOINT rToeJoint
                {
                    OFFSET   0.000000  -0.050000   0.130000
                    CHANNELS 3 Xrotation Yrotation Zrotation
                    End Site
                    {
                        OFFSET  -0.010000   0.002000   0.060000
                    }
                }
            }
        }
    }
    JOINT lHip
    {
        OFFSET   0.100000  -0.051395   0.000000
        CHANNELS 3 Xrotation Yrotation Zrotation
        JOINT lKnee
        {
            OFFSET   0.000000  -0.410000   0.000000
            CHANNELS 3 Xrotation Yrotation Zrotation
            JOINT lAnkle
            {
                OFFSET   0.000000  -0.390000   0.000000
                CHANNELS 3 Xrotation Yrotation Zrotation
                JOINT lToeJoint
                {
                    OFFSET   0.000000  -0.050000   0.130000
                    CHANNELS 3 Xrotation Yrotation Zrotation
                    End Site
                    {
                        OFFSET   0.010000   0.002000   0.060000
                    }
                }
            }
        }
    }
}
MOTION
Frames: 15
Frame Time:   0.008333
 -2.376719   0.925631   3.975860   0.000000   0.000000   0.000000   0.000000   0.000000   0.000000   0.000000   0.000000   0.000000   0.000000   0.000000   0.000000   0.000000   0.000000   0.000000   0.000000   0.000000   0.000000   0.000000   0.000000   0.000000   0.000000   0.000000   0.000000   0.000000   0.000000   0.000000   0.000000   0.000000   0.000000   0.000000   0.000000   0.000000   0.000000   0.000000   0.000000   0.000000   0.000000   0.000000   0.000000   0.000000   0.000000   0.000000   0.000000   0.000000   0.000000   0.000000   0.000000   0.000000   0.000000   0.000000   0.000000   0.000000   0.000000   0.000000   0.000000   0.000000   0.000000   0.000000   0.000000
 -2.376680   0.926284   3.975251   0.276185  -0.031048  -0.037225  -0.298370   0.033136   0.038471   0.136417  -0.153487   0.015930  -0.198287   0.141165   0.072146   0.130187  -0.277290   0.366815   0.681695   0.331759   2.068721   0.018676   0.868269  -0.007128   0.383946  -0.384094  -2.754037   0.191336   0.288185  -0.631811   1.102830  -0.009876  -1.898854   0.010724  -0.487498   0.006026   0.419756   0.036611   2.891471  -0.755072   0.371672  -0.114013   1.200872   0.001641   0.003551  -1.016763   0.007982   0.043387  -0.131712  -0.000122  -0.000402  -0.941541  -0.119225   0.208208   1.876804  -0.002846  -0.002389  -1.358071   0.092030   0.048345   0.256466  -0.000488  -0.000130
 -2.376672   0.927361   3.974791   0.479265  -0.129428  -0.074645  -0.564019   0.079951   0.075366   0.302828  -0.285603   0.027844  -0.377636   0.273633   0.153568   0.259357  -0.500890   1.466166   1.331976   0.728477   4.724873   0.043202   1.717327  -0.012301   0.796129  -0.496515  -4.761032   0.389210   0.551506  -2.025933   2.183902  -0.062139  -4.421510   0.024525  -0.951682   0.010462   0.881265  -0.014249   5.027120  -1.436662   0.743971  -0.344886   2.438457   0.004448   0.005659  -1.966636   0.017415   0.085107  -0.299679  -0.000436  -0.000739  -1.784845  -0.237519   0.558066   3.836693  -0.007858  -0.005162  -2.620066   0.179904   0.097337   0.463317  -0.001044  -0.000321
 -2.376692   0.928430   3.974485   0.662721  -0.267892  -0.104700  -0.826776   0.131312   0.101808   0.455102  -0.398820   0.028811  -0.543638   0.396418   0.233881   0.383335  -0.679154   3.013019   1.945989   1.172648   7.765754   0.067148   2.518721  -0.015457   1.197933  -0.510267  -5.918594   0.581638   0.777283  -3.871268   3.239618  -0.176966  -7.351475   0.037981  -1.387586   0.013471   1.329099  -0.098373   6.277533  -2.064836   1.094280  -0.677525   3.609225   0.007602   0.006373  -2.853023   0.023757   0.123800  -0.460019  -0.000817  -0.000896  -2.540415  -0.353885   1.014697   5.704030  -0.013653  -0.007301  -3.795974   0.262757   0.146032   0.653134  -0.001628  -0.000506
 -2.376732   0.929157   3.974308   0.840214  -0.426901  -0.127779  -1.087340   0.181946   0.117098   0.584506  -0.499955   0.019756  -0.700610   0.510435   0.310140   0.505017  -0.825240   4.857102   2.500719   1.640160  10.945251   0.087215   3.271633  -0.016940   1.585741  -0.473015  -6.375350   0.767680   0.970249  -6.005613   4.231717  -0.354960 -10.443117   0.049402  -1.798460   0.015315   1.761956  -0.217665   6.805188  -2.650033   1.424452  -1.092380   4.702917   0.010636   0.006231  -3.681175   0.027417   0.159458  -0.614561  -0.001218  -0.000948  -3.225551  -0.469674   1.554987   7.458865  -0.019371  -0.008530  -4.893889   0.340636   0.193939   0.820705  -0.002138  -0.000638
 -2.376784   0.929285   3.974238   1.013763  -0.595868  -0.145141  -1.343438   0.229158   0.122060   0.692927  -0.593476   0.001550  -0.848871   0.616465   0.381924   0.626170  -0.951690   6.867138   2.992274   2.113910  14.121549   0.102098   3.976478  -0.017193   1.957267  -0.408401  -6.335519   0.946423   1.138203  -8.296775   5.144903  -0.586291 -13.543958   0.058090  -2.185984   0.016272   2.179170  -0.370502   6.819153  -3.195822   1.737288  -1.571428   5.723233   0.013304   0.005602  -4.454943   0.029050   0.192254  -0.762554  -0.001599  -0.000938  -3.849627  -0.585744   2.160050   9.103874  -0.024512  -0.008920  -5.919285   0.413659   0.240735   0.968066  -0.002537  -0.000713
 -2.376843   0.928633   3.974257   1.182639  -0.769970  -0.157928  -1.592994   0.271658   0.117921   0.784166  -0.682041  -0.024497  -0.988273   0.715177   0.449027   0.747895  -1.067289   8.937638   3.426172   2.584134  17.225047   0.111727   4.634455  -0.016618   2.311178  -0.332679  -5.979940   1.117569   1.287756 -10.638012   5.981820  -0.859655 -16.580808   0.063967  -2.550931   0.016597   2.579543  -0.549177   6.506320  -3.704423   2.034908  -2.099002   6.675563   0.015491   0.004712  -5.177713   0.029187   0.222404  -0.902655  -0.001932  -0.000889  -4.418783  -0.702521   2.813580  10.645147  -0.028810  -0.008662  -6.876868   0.481965   0.286204   1.098532  -0.002822  -0.000745
 -2.376876   0.926508   3.974031   1.372863  -0.999803  -0.228043  -1.776160   0.375598   0.189241   0.847400  -0.744695  -0.033520  -1.179373   0.677100   0.473863   0.956982  -1.052409  10.374482   3.935029   2.960792  20.061266   0.120985   5.458020  -0.018660   2.574460  -0.252111  -4.630753   1.256054   1.439124 -12.152584   6.608947  -1.212104 -19.700100   0.067013  -2.935175   0.016448   2.943631  -0.853216   5.149546  -4.307333   2.188889  -2.513700   7.810525   0.017468   0.001990  -5.832707  -0.026818   0.482808  -0.932602  -0.001613  -0.000673  -4.915342  -0.666552   3.491562  11.627427  -0.028428  -0.006916  -7.748107   0.662024   0.282887   1.289641  -0.003252  -0.000479
 -2.376882   0.923150   3.973668   1.558472  -1.184590  -0.305185  -1.915326   0.469315   0.268299   0.917761  -0.802541  -0.034794  -1.359714   0.635996   0.497575   1.140271  -1.011794  11.492872   4.388788   3.345987  22.554700   0.122311   6.236345  -0.019971   2.838159  -0.107259  -3.430560   1.376129   1.562439 -13.355924   7.172601  -1.575338 -22.475122   0.066552  -3.299558   0.016022   3.287328  -1.203120   3.880543  -4.863735   2.323517  -2.879198   8.895571   0.018377   0.000073  -6.440496  -0.083393   0.725305  -0.945556  -0.001317  -0.000524  -5.438143  -0.636634   4.127204  12.459451  -0.026874  -0.005197  -8.566003   0.831505   0.282703   1.458901  -0.003408  -0.000226
 -2.376864   0.918698   3.973241   1.733313  -1.336795  -0.379982  -2.022229   0.562379   0.345319   0.996736  -0.851223  -0.034341  -1.524457   0.597340   0.520639   1.299405  -0.958760  12.385808   4.792214   3.728250  24.771655   0.118681   6.967022  -0.020612   3.092821   0.055912  -2.492031   1.482352   1.668916 -14.334821   7.681488  -1.935609 -24.958986   0.063835  -3.640336   0.015314   3.611591  -1.548050   2.859850  -5.359594   2.451479  -3.207654   9.915346   0.018460  -0.001161  -7.006932  -0.138182   0.951042  -0.953791  -0.001068  -0.000412  -5.980105  -0.615227   4.711527  13.202995  -0.024828  -0.003698  -9.330766   0.989236   0.284657   1.613240  -0.003393  -0.000014
 -2.376831   0.913250   3.972796   1.896708  -1.466276  -0.450943  -2.105890   0.658934   0.418627   1.081338  -0.887656  -0.033503  -1.674968   0.561331   0.542255   1.438870  -0.900537  13.111149   5.151991   4.100372  26.761151   0.112130   7.651130  -0.020711   3.336771   0.220870  -1.766938   1.579707   1.768386 -15.143413   8.143463  -2.283642 -27.199306   0.059780  -3.956639   0.014371   3.916763  -1.869162   2.050490  -5.796838   2.572806  -3.502194  10.873045   0.017960  -0.001930  -7.535060  -0.190933   1.161248  -0.959233  -0.000863  -0.000326  -6.530820  -0.601549   5.245121  13.875895  -0.022566  -0.002470 -10.045258   1.135897   0.288288   1.755134  -0.003267   0.000151
 -2.376784   0.912702   3.972675   1.882917  -1.615623  -0.600797  -2.085980   0.773716   0.553039   1.230804  -0.900386  -0.003241  -1.807617   0.528336   0.566263   1.559690  -0.819091  14.042887   5.468792   4.469296  28.661803   0.106200   8.279548  -0.020273   3.569700   0.316706  -1.279050   1.661945   1.851329 -16.165991   8.553672  -2.634620 -29.341858   0.055988  -4.244027   0.013268   4.202371  -2.093266   1.465080  -6.397249   2.717961  -3.345365  12.029672   0.014636  -0.002195  -7.903722  -0.151499   1.596273  -0.890510  -0.000931  -0.000261  -7.107938  -0.590491   5.428638  15.110169  -0.018518  -0.002120 -10.539255   1.185462   0.052136   1.424506  -0.003203   0.000146
 -2.376744   0.912240   3.972995   1.868675  -1.680646  -0.692424  -2.130532   0.864731   0.621217   1.362854  -0.920267   0.013837  -1.921421   0.496470   0.587660   1.693010  -0.773108  14.774627   5.764283   4.811999  30.447389   0.098749   8.872598  -0.019358   3.791348   0.451092  -0.636080   1.757742   1.957219 -16.956705   8.935865  -2.958637 -31.334402   0.051645  -4.515428   0.011926   4.475416  -2.354858   0.752330  -6.839532   2.820949  -3.240579  12.974265   0.011837  -0.001829  -8.286143  -0.179045   1.794027  -0.870715  -0.000776  -0.000211  -7.507885  -0.547673   5.540368  16.029158  -0.014914  -0.001151 -11.033806   1.315725   0.048447   1.604659  -0.002575   0.000385
 -2.376699   0.911975   3.973357   1.888896  -1.776256  -0.704904  -2.070939   0.991411   0.566291   1.340127  -0.912880   0.084090  -2.052822   0.394733   0.596337   1.779397  -0.793045  15.156993   5.941917   5.099478  31.792987   0.088977   9.491060  -0.017688   3.918949   0.648599   0.586478   1.874984   2.095354 -17.253540   9.273009  -3.256638 -33.073764   0.048840  -4.917205   0.011062   4.706619  -2.667941  -0.520769  -7.190247   2.875624  -3.224312  13.652785   0.009514  -0.001957  -8.543777  -0.151193   1.937950  -0.770591  -0.000728  -0.000201  -7.725664  -0.425272   5.569868  16.500434  -0.011906  -0.000607 -11.288671   1.414535   0.125953   1.679283  -0.002109   0.000410
 -2.376674   0.911804   3.973628   1.973178  -1.841974  -0.693304  -2.015987   1.109284   0.500310   1.288665  -0.903880   0.145287  -2.183982   0.296993   0.603152   1.833507  -0.800306  15.261503   6.093984   5.367598  32.866761   0.077787  10.072774  -0.016210   4.033389   0.863980   1.548684   1.976391   2.217129 -17.277214   9.584536  -3.528086 -34.524268   0.044268  -5.292775   0.010101   4.921358  -2.997244  -1.572665  -7.534724   2.925427  -3.231065  14.193291   0.007647  -0.001810  -8.810636  -0.125435   2.065878  -0.586232  -0.000762  -0.000174  -7.948445  -0.309362   5.576463  16.832263  -0.009496  -0.000238 -11.548131   1.505947   0.201247   1.842694  -0.001788   0.000562
